<?xml version="1.0" encoding="utf-8"?>
<COLLADA xmlns="http://www.collada.org/2005/11/COLLADASchema" version="1.4.1">
  <asset>
    <contributor><authoring_tool>hiking_lora_sim procedural generator</authoring_tool></contributor>
    <unit name="meter" meter="1"/>
    <up_axis>Z_UP</up_axis>
  </asset>
  <library_geometries>
    <geometry id="stream_surface" name="stream_surface">
      <mesh>
        <source id="stream_surface_positions">
          <float_array id="stream_surface_positions_array" count="2130">-101.686 -91.6394 0.5524 -100.314 -92.3606 0.5659 -101.5553 -91.3907 0.5668 -100.183 -92.1115 0.5753 -101.4132 -91.12 0.5824 -100.0405 -91.8398 0.5853 -101.26 -90.8277 0.599 -99.8869 -91.5468 0.5959 -101.0962 -90.5147 0.6167 -99.7228 -91.2333 0.607 -100.9222 -90.1819 0.6352 -99.5486 -90.9001 0.6185 -100.7383 -89.8302 0.6544 -99.3646 -90.548 0.6302 -100.5451 -89.4604 0.6743 -99.1712 -90.178 0.6421 -100.343 -89.0733 0.6947 -98.969 -89.7907 0.654 -100.1323 -88.6698 0.7154 -98.7583 -89.3871 0.6658 -99.9136 -88.2508 0.7364 -98.5395 -88.968 0.6774 -99.6872 -87.817 0.7574 -98.3131 -88.5342 0.6887 -99.4535 -87.3694 0.7783 -98.0795 -88.0866 0.6994 -99.213 -86.9087 0.799 -97.839 -87.6261 0.7095 -98.9662 -86.4359 0.8193 -97.5922 -87.1534 0.7188 -98.7133 -85.9517 0.839 -97.3394 -86.6694 0.7272 -98.4549 -85.4571 0.858 -97.0811 -86.1749 0.7345 -98.1913 -84.9528 0.8761 -96.8177 -85.6709 0.7407 -97.9231 -84.4397 0.8931 -96.5496 -85.158 0.7455 -97.6505 -83.9187 0.9089 -96.2772 -84.6373 0.7488 -97.3741 -83.3905 0.9234 -96.0009 -84.1095 0.7507 -97.0942 -82.8561 0.9365 -95.7212 -83.5754 0.7509 -96.8113 -82.3163 0.948 -95.4385 -83.036 0.7493 -96.5258 -81.7719 0.9578 -95.1533 -82.492 0.746 -96.2382 -81.2237 0.9658 -94.8658 -81.9443 0.7408 -95.9487 -80.6727 0.9721 -94.5766 -81.3937 0.7337 -95.658 -80.1196 0.9764 -94.2862 -80.8411 0.7247 -95.3663 -79.5653 0.9789 -93.9948 -80.2874 0.7138 -95.0741 -79.0106 0.9794 -93.7029 -79.7334 0.7011 -94.7818 -78.4565 0.9779 -93.411 -79.1798 0.6864 -94.4899 -77.9036 0.9746 -93.1194 -78.6277 0.67 -94.1988 -77.3529 0.9694 -92.8287 -78.0777 0.6518 -93.9088 -76.8052 0.9624 -92.5392 -77.5308 0.632 -93.6205 -76.2613 0.9536 -92.2513 -76.9878 0.6106 -93.3342 -75.7222 0.9432 -91.9655 -76.4496 0.5877 -93.0503 -75.1885 0.9313 -91.6821 -75.917 0.5636 -92.7693 -74.6612 0.9179 -91.4017 -75.3908 0.5383 -92.4916 -74.1412 0.9032 -91.1246 -74.8719 0.5119 -92.2176 -73.6291 0.8873 -90.8513 -74.3611 0.4847 -91.9477 -73.126 0.8704 -90.5822 -73.8594 0.4568 -91.6826 -72.633 0.8525 -90.3174 -73.367 0.445 -91.4331 -72.1689 0.8349 -90.0674 -72.9019 0.445 -91.1844 -71.7047 0.8166 -89.8177 -72.4359 0.445 -90.9359 -71.2397 0.7978 -89.5685 -71.9695 0.445 -90.6878 -70.7741 0.7785 -89.3196 -71.5025 0.445 -90.4398 -70.3079 0.7587 -89.071 -71.0351 0.445 -90.1919 -69.8409 0.7386 -88.8226 -70.5672 0.445 -89.9441 -69.3733 0.7182 -88.5744 -70.0989 0.445 -89.6962 -68.9051 0.6975 -88.3262 -69.63 0.445 -89.4482 -68.4362 0.6766 -88.078 -69.1607 0.445 -89.2 -67.9666 0.6556 -87.8297 -68.6909 0.445 -88.9515 -67.4964 0.6345 -87.5811 -68.2207 0.445 -88.7026 -67.0255 0.6135 -87.3323 -67.75 0.445 -88.4533 -66.554 0.5926 -87.0832 -67.2788 0.445 -88.2034 -66.0818 0.5718 -86.8336 -66.8071 0.445 -87.953 -65.609 0.5513 -86.5835 -66.3349 0.445 -87.7018 -65.1355 0.5311 -86.3328 -65.8623 0.445 -87.4498 -64.6613 0.5113 -86.0814 -65.3892 0.445 -87.197 -64.1865 0.492 -85.8292 -64.9156 0.445 -86.9433 -63.711 0.4733 -85.5762 -64.4415 0.445 -86.6885 -63.2349 0.4552 -85.3223 -63.967 0.445 -86.4326 -62.7581 0.445 -85.0674 -63.4919 0.445 -86.1756 -62.2806 0.445 -84.8114 -63.0164 0.445 -85.9173 -61.8025 0.445 -84.5542 -62.5404 0.445 -85.6576 -61.3238 0.445 -84.2957 -62.064 0.445 -85.3965 -60.8444 0.445 -84.036 -61.587 0.445 -85.1339 -60.3644 0.445 -83.7748 -61.1096 0.445 -84.8698 -59.8837 0.445 -83.5122 -60.6316 0.445 -84.6039 -59.4023 0.445 -83.2479 -60.1532 0.445 -84.3363 -58.9204 0.445 -82.9821 -59.6743 0.445 -84.0669 -58.4377 0.445 -82.7144 -59.1949 0.445 -83.7956 -57.9545 0.445 -82.445 -58.715 0.445 -83.5223 -57.4706 0.445 -82.1737 -58.2347 0.445 -83.2469 -56.986 0.445 -81.9004 -57.7538 0.445 -82.9693 -56.5008 0.445 -81.625 -57.2724 0.445 -82.6895 -56.015 0.445 -81.3475 -56.7906 0.445 -82.4074 -55.5285 0.445 -81.0678 -56.3082 0.445 -82.1229 -55.0414 0.445 -80.7858 -55.8253 0.445 -81.836 -54.5537 0.445 -80.5014 -55.342 0.445 -81.5464 -54.0654 0.445 -80.2145 -54.8581 0.445 -81.2543 -53.5764 0.445 -79.9251 -54.3737 0.445 -80.9594 -53.0868 0.445 -79.6331 -53.8889 0.445 -80.6617 -52.5965 0.445 -79.3383 -53.4035 0.445 -80.3869 -52.148 0.4701 -79.0668 -52.9603 0.445 -80.1094 -51.699 0.5004 -78.7925 -52.5165 0.445 -79.8294 -51.2497 0.5343 -78.5155 -52.0721 0.445 -79.5468 -50.8001 0.572 -78.2359 -51.6271 0.445 -79.2619 -50.3501 0.6137 -77.9537 -51.1815 0.445 -78.9746 -49.8998 0.6597 -77.6691 -50.7354 0.445 -78.6851 -49.4491 0.7102 -77.3822 -50.2887 0.445 -78.3935 -48.998 0.7657 -77.093 -49.8413 0.445 -78.0998 -48.5465 0.8262 -76.8016 -49.3934 0.445 -77.8042 -48.0947 0.8922 -76.5082 -48.945 0.445 -77.5068 -47.6426 0.9639 -76.2128 -48.4959 0.445 -77.2076 -47.19 1.0416 -75.9156 -48.0463 0.445 -76.9068 -46.7371 1.1256 -75.6165 -47.5961 0.445 -76.6043 -46.2838 1.2162 -75.3158 -47.1453 0.4503 -76.3004 -45.8302 1.3137 -75.0134 -46.6939 0.5466 -75.9951 -45.3761 1.4185 -74.7096 -46.242 0.6503 -75.6886 -44.9217 1.5308 -74.4043 -45.7895 0.7618 -75.3808 -44.4669 1.6509 -74.0977 -45.3365 0.8814 -75.0719 -44.0117 1.7792 -73.7898 -44.8829 1.0093 -74.762 -43.5562 1.9159 -73.4808 -44.4287 1.1459 -74.4511 -43.1003 2.0614 -73.1708 -43.9739 1.2914 -74.1394 -42.6439 2.216 -72.8598 -43.5186 1.4463 -73.827 -42.1872 2.3798 -72.548 -43.0628 1.6107 -73.514 -41.7302 2.5533 -72.2354 -42.6063 1.7851 -73.2004 -41.2727 2.7367 -71.9221 -42.1493 1.9696 -72.8863 -40.8149 2.9302 -71.6082 -41.6918 2.1645 -72.5718 -40.3566 3.1341 -71.2938 -41.2336 2.3702 -72.2571 -39.898 3.3487 -70.979 -40.775 2.5868 -71.9422 -39.439 3.574 -70.664 -40.3157 2.8146 -71.6272 -38.9796 3.8103 -70.3487 -39.8559 3.0538 -71.3122 -38.5198 4.0578 -70.0333 -39.3956 3.3046 -70.9972 -38.0597 4.3166 -69.7178 -38.9347 3.5672 -70.6825 -37.5991 4.5869 -69.4024 -38.4732 3.8416 -70.368 -37.1382 4.8686 -69.0872 -38.0111 4.1281 -70.0539 -36.6769 5.1618 -68.7722 -37.5485 4.4266 -69.7403 -36.2152 5.4666 -68.4576 -37.0854 4.7373 -69.4272 -35.7531 5.783 -68.1434 -36.6217 5.0602 -69.1148 -35.2906 6.1108 -67.8298 -36.1574 5.3951 -68.8031 -34.8278 6.45 -67.5167 -35.6925 5.7422 -68.4922 -34.3645 6.8003 -67.2044 -35.2271 6.1012 -68.1822 -33.9009 7.1617 -66.8929 -34.7612 6.472 -67.8733 -33.4369 7.5339 -66.5822 -34.2946 6.8543 -67.5654 -32.9725 7.9165 -66.2726 -33.8276 7.2481 -67.2588 -32.5078 8.3093 -65.964 -33.3599 7.6528 -66.9534 -32.0426 8.7117 -65.6567 -32.8917 8.0683 -66.6498 -31.5777 9.123 -65.3502 -32.4223 8.4945 -66.3612 -31.1314 9.5256 -65.0572 -31.9694 8.9145 -66.0743 -30.6822 9.9378 -64.7657 -31.5128 9.3459 -65.7888 -30.2296 10.3597 -64.4758 -31.0533 9.7875 -65.5046 -29.7739 10.7906 -64.1876 -30.5912 10.2386 -65.2215 -29.3153 11.2296 -63.9008 -30.1266 10.6985 -64.9394 -28.8539 11.676 -63.6153 -29.6598 11.1663 -64.6582 -28.3899 12.1289 -63.3312 -29.1908 11.6412 -64.3778 -27.9235 12.5875 -63.0481 -28.72 12.1222 -64.0982 -27.455 13.0507 -62.7661 -28.2474 12.6084 -63.8192 -26.9844 13.5175 -62.4849 -27.7733 13.0988 -63.5406 -26.512 13.9869 -62.2046 -27.2979 13.5922 -63.2625 -26.0381 14.4577 -61.925 -26.8213 14.0875 -62.9847 -25.5627 14.9288 -61.6459 -26.3438 14.5836 -62.7071 -25.086 15.399 -61.3673 -25.8654 15.0793 -62.4295 -24.6083 15.8671 -61.089 -25.3865 15.5733 -62.1519 -24.1298 16.3318 -60.811 -24.9072 16.0645 -61.8742 -23.6506 16.792 -60.5331 -24.4277 16.5515 -61.5963 -23.1709 17.2463 -60.2553 -23.9482 17.0331 -61.318 -22.691 17.6936 -59.9773 -23.4689 17.508 -61.0392 -22.2109 18.1326 -59.6992 -22.9899 17.9751 -60.7599 -21.731 18.562 -59.4208 -22.5115 18.433 -60.4799 -21.2513 18.9807 -59.1419 -22.0338 18.8806 -60.1991 -20.7721 19.3876 -58.8626 -21.5571 19.3167 -59.9174 -20.2936 19.7815 -58.5826 -21.0814 19.7402 -59.6347 -19.8159 20.1614 -58.3019 -20.6071 20.1501 -59.3509 -19.3393 20.5263 -58.0203 -20.1343 20.5453 -59.0658 -18.8639 20.8752 -57.7379 -19.6632 20.9249 -58.7795 -18.3899 21.2073 -57.4543 -19.194 21.288 -58.4916 -17.9176 21.5219 -57.1697 -18.7269 21.6339 -58.2022 -17.447 21.8182 -56.8837 -18.262 21.9619 -57.9111 -16.9784 22.0957 -56.5965 -17.7996 22.2713 -57.6182 -16.512 22.3538 -56.3077 -17.3398 22.5617 -57.3234 -16.048 22.5921 -56.0174 -16.8829 22.8327 -57.0266 -15.5866 22.8104 -55.7255 -16.429 23.0839 -56.7276 -15.1278 23.0085 -55.4317 -15.9783 23.3152 -56.4264 -14.6721 23.1863 -55.1361 -15.5311 23.5264 -56.1227 -14.2194 23.3438 -54.8386 -15.0874 23.7176 -55.8167 -13.7701 23.4811 -54.539 -14.6475 23.8889 -55.508 -13.3242 23.5985 -54.2372 -14.2117 24.0405 -55.1965 -12.8821 23.6962 -53.9331 -13.78 24.1726 -54.8823 -12.4438 23.7748 -53.6267 -13.3526 24.2857 -54.565 -12.0096 23.8347 -53.3178 -12.9298 24.3803 -54.2447 -11.5797 23.8765 -53.0063 -12.5118 24.4568 -53.9212 -11.1542 23.9009 -52.6922 -12.0987 24.5161 -53.5944 -10.7334 23.9087 -52.3753 -11.6907 24.5588 -53.2641 -10.3174 23.9007 -52.0556 -11.288 24.5856 -52.9303 -9.9065 23.8778 -51.7329 -10.8908 24.5975 -52.5931 -9.5012 23.841 -51.4069 -10.4988 24.5952 -52.2238 -9.0664 23.7857 -51.0469 -10.075 24.5771 -51.8527 -8.6372 23.7149 -50.6845 -9.6558 24.5428 -51.4796 -8.2129 23.6297 -50.32 -9.2414 24.4933 -51.1044 -7.7935 23.5308 -49.9534 -8.8316 24.4295 -50.7272 -7.3787 23.4194 -49.5848 -8.4264 24.3523 -50.3479 -6.9685 23.2964 -49.2141 -8.0254 24.2626 -49.9666 -6.5628 23.1628 -48.8413 -7.6287 24.1613 -49.5832 -6.1613 23.0194 -48.4664 -7.2361 24.0491 -49.1978 -5.764 22.8672 -48.0894 -6.8474 23.9271 -48.8104 -5.3707 22.7071 -47.7102 -6.4625 23.7959 -48.421 -4.9812 22.5399 -47.329 -6.0813 23.6565 -48.0296 -4.5955 22.3665 -46.9456 -5.7035 23.5095 -47.6361 -4.2134 22.1877 -46.5602 -5.3291 23.3558 -47.2407 -3.8347 22.0042 -46.1725 -4.9579 23.1962 -46.8433 -3.4594 21.8169 -45.7828 -4.5898 23.0312 -46.4438 -3.0872 21.6264 -45.3909 -4.2246 22.8618 -46.0424 -2.718 21.4334 -44.9968 -3.8622 22.6884 -45.639 -2.3517 21.2386 -44.6006 -3.5025 22.5118 -45.2337 -1.9882 21.0426 -44.2023 -3.1453 22.3326 -44.8263 -1.6273 20.846 -43.8018 -2.7904 22.1514 -44.417 -1.2689 20.6494 -43.3991 -2.4378 21.9687 -44.0057 -0.9127 20.4532 -42.9943 -2.0873 21.7852 -43.5925 -0.5588 20.2581 -42.5873 -1.7387 21.6013 -43.1773 -0.2069 20.0645 -42.1781 -1.3919 21.4176 -42.7601 0.1431 19.8728 -41.7667 -1.0468 21.2346 -42.341 0.4913 19.6835 -41.3532 -0.7032 21.0526 -41.92 0.8379 19.497 -40.9375 -0.361 20.8722 -41.497 1.183 19.3136 -40.5196 -0.02 20.6938 -41.072 1.5268 19.1337 -40.0995 0.3199 20.5177 -40.6451 1.8694 18.9577 -39.6772 0.6588 20.3444 -40.2163 2.211 18.7859 -39.2527 0.9968 20.1743 -39.7855 2.5516 18.6185 -38.8261 1.3342 20.0076 -39.3528 2.8915 18.4559 -38.3972 1.671 19.8447 -38.9181 3.2307 18.2983 -37.9662 2.0075 19.686 -38.4815 3.5695 18.1458 -37.5329 2.3436 19.5317 -38.043 3.9079 17.9989 -37.0975 2.6796 19.3822 -37.6025 4.2461 17.8576 -36.6599 3.0157 19.2376 -37.1601 4.5843 17.7222 -36.2201 3.3519 19.0984 -36.7158 4.9225 17.5929 -35.778 3.6884 18.9646 -36.2695 5.261 17.4698 -35.3338 4.0253 18.8367 -35.8213 5.5998 17.3531 -34.8874 4.3628 18.7147 -35.3711 5.9392 17.243 -34.4388 4.7009 18.5989 -34.919 6.2792 17.1395 -33.988 5.04 18.4896 -34.4645 6.6203 17.0428 -33.5355 5.3797 18.387 -34.0442 6.9343 16.9607 -33.1191 5.6907 18.2998 -33.62 7.2485 16.886 -32.6997 6.0013 18.2199 -33.1926 7.5626 16.8189 -32.2771 6.3119 18.1475 -32.7621 7.8765 16.7597 -31.8513 6.6224 18.0827 -32.3286 8.1901 16.7083 -31.4224 6.9326 18.0257 -31.8923 8.5034 16.665 -30.9905 7.2427 17.9767 -31.4531 8.8163 16.6299 -30.5558 7.5525 17.9358 -31.0113 9.1289 16.603 -30.1184 7.8619 17.9032 -30.5668 9.4409 16.5845 -29.6783 8.1709 17.879 -30.12 9.7525 16.5744 -29.2357 8.4795 17.8633 -29.6707 10.0634 16.5728 -28.7906 8.7875 17.8562 -29.2192 10.3738 16.5797 -28.3433 9.095 17.8579 -28.7656 10.6834 16.5952 -27.8938 9.4018 17.8683 -28.3099 10.9923 16.6194 -27.4421 9.708 17.8875 -27.8523 11.3005 16.6521 -26.9885 10.0135 17.9156 -27.3929 11.6078 16.6935 -26.5331 10.3181 17.9526 -26.9317 11.9142 16.7436 -26.0758 10.6219 17.9985 -26.469 12.2197 16.8023 -25.617 10.9248 18.0534 -26.0047 12.5242 16.8696 -25.1566 11.2268 18.1172 -25.5391 12.8276 16.9455 -24.6947 11.5277 18.1899 -25.0721 13.1299 17.0299 -24.2316 11.8276 18.2715 -24.604 13.4311 17.1229 -23.7672 12.1264 18.3619 -24.1348 13.731 17.2244 -23.3018 12.4239 18.4612 -23.6647 14.0297 17.3342 -22.8353 12.7203 18.5692 -23.1937 14.3271 17.4525 -22.368 13.0153 18.6858 -22.7219 14.6231 17.5789 -21.8999 13.309 18.8111 -22.2495 14.9177 17.7136 -21.4312 13.6013 18.9449 -21.7766 15.2108 17.8564 -20.9619 13.8922 19.0872 -21.3032 15.5024 18.0073 -20.4921 14.1816 19.2377 -20.8295 15.7924 18.166 -20.022 14.4693 19.3965 -20.3556 16.0807 18.3326 -19.5517 14.7555 19.5634 -19.8817 16.3674 18.5068 -19.0813 15.04 19.7382 -19.4077 16.6523 18.6886 -18.6109 15.3228 19.9208 -18.9338 16.9354 18.8779 -18.1406 15.6038 20.111 -18.4601 17.2167 19.0744 -17.6705 15.8829 20.3088 -17.9868 17.4961 19.2781 -17.2007 16.1602 20.5138 -17.5139 17.7735 19.4888 -16.7314 16.4355 20.7261 -17.0415 18.0489 19.7063 -16.2626 16.7088 20.9453 -16.5698 18.3222 19.9304 -15.7945 16.98 21.1712 -16.0988 18.5934 20.1611 -15.3271 17.2492 21.4037 -15.6287 18.8625 20.398 -14.8606 17.5161 21.6426 -15.1596 19.1293 20.6411 -14.3951 17.7809 21.8876 -14.6915 19.3938 20.89 -13.9307 18.0434 22.1385 -14.2246 19.656 21.1446 -13.4675 18.3035 22.3951 -13.7591 19.9158 21.4047 -13.0056 18.5613 22.6571 -13.2949 20.1732 21.6701 -12.5451 18.8166 22.9243 -12.8322 20.428 21.9405 -12.0862 19.0694 23.1965 -12.3705 20.6807 22.216 -11.6295 19.3193 23.4729 -11.8668 20.9535 22.5234 -11.1327 19.5884 23.7803 -11.3622 21.223 22.8388 -10.6359 19.8537 24.0948 -10.8572 21.4891 23.1616 -10.1385 20.1157 24.4165 -10.3518 21.7517 23.4915 -9.6406 20.3745 24.745 -9.8463 22.0111 23.8282 -9.1423 20.6302 25.0803 -9.3405 22.2673 24.1715 -8.6435 20.8829 25.4219 -8.8345 22.5205 24.521 -8.1443 21.1326 25.7696 -8.3283 22.7707 24.8766 -7.6447 21.3796 26.1231 -7.822 23.018 25.2379 -7.1447 21.6239 26.4822 -7.3157 23.2626 25.6046 -6.6444 21.8655 26.8464 -6.8093 23.5046 25.9764 -6.1438 22.1047 27.2156 -6.3029 23.7441 26.3531 -5.643 22.3416 27.5893 -5.7965 23.9811 26.7342 -5.142 22.5761 27.9673 -5.2902 24.2158 27.1196 -4.6408 22.8085 28.3493 -4.784 24.4484 27.5088 -4.1394 23.0388 28.735 -4.278 24.6788 27.9016 -3.6379 23.2671 29.1239 -3.7721 24.9072 28.2976 -3.1363 23.4936 29.5159 -3.2664 25.1337 28.6964 -2.6347 23.7183 29.9105 -2.761 25.3585 29.0979 -2.133 23.9414 30.3074 -2.2559 25.5816 29.5015 -1.6314 24.163 30.7063 -1.7511 25.8031 29.9071 -1.1298 24.3831 31.1068 -1.2467 26.0232 30.3142 -0.6283 24.6018 31.5087 -0.7426 26.2419 30.7225 -0.1269 24.8194 31.9116 -0.239 26.4593 31.1317 0.3743 25.0358 32.3152 0.2641 26.6756 31.5415 0.8753 25.2512 32.7191 0.7667 26.8909 31.9516 1.3761 25.4657 33.123 1.2688 27.1052 32.3615 1.8767 25.6794 33.5267 1.7703 27.3187 32.7711 2.3769 25.8924 33.9298 2.2712 27.5315 33.18 2.8769 26.1048 34.3319 2.7715 27.7437 33.5879 3.3765 26.3167 34.7329 3.271 27.9554 33.9946 3.8756 26.5282 35.1324 3.7699 28.1667 34.3996 4.3744 26.7394 35.5302 4.268 28.3776 34.8028 4.8727 26.9505 35.9259 4.7652 28.5884 35.204 5.3705 27.1615 36.3193 5.2617 28.7991 35.6027 5.8677 27.3725 36.7103 5.7573 29.0098 35.9988 6.3644 27.5837 37.0985 6.252 29.2207 36.3922 6.8605 27.7951 37.4837 6.7458 29.4318 36.7824 7.3559 28.0069 37.8657 7.2386 29.6432 37.1694 7.8507 28.2192 38.2444 7.7304 29.855 37.5529 8.3448 28.432 38.6195 8.2211 30.0674 37.9328 8.8381 28.6455 38.9908 8.7108 30.2804 38.3089 9.3306 28.8598 39.3583 9.1993 30.4942 38.6811 9.8224 29.075 39.7218 9.6874 30.7092 39.0497 10.3126 29.2908 40.0807 10.2048 30.9374 39.4372 10.8295 29.5189 40.4556 10.7327 31.1695 39.8295 11.3558 29.7503 40.8339 11.2697 31.4049 40.2253 11.8913 29.985 41.2151 11.8151 31.6433 40.6236 12.4352 30.2228 41.5984 12.3678 31.8843 41.0237 12.9867 30.4633 41.9829 12.9273 32.1277 41.4247 13.545 30.7061 42.368 13.4926 32.3731 41.8258 14.1092 30.951 42.7528 14.063 32.6201 42.2264 14.6786 31.1976 43.1365 14.6377 32.8685 42.6257 15.2523 31.4456 43.5187 15.2158 33.118 43.023 15.8295 31.6947 43.8986 15.7965 33.3682 43.4179 16.4093 31.9445 44.2757 16.3791 33.6187 43.8096 16.9911 32.1947 44.6495 16.9627 33.8694 44.1978 17.574 32.445 45.0195 17.5466 34.1197 44.5818 18.1571 32.6951 45.3852 18.1298 34.3695 44.9614 18.7397 32.9446 45.7463 18.7116 34.6184 45.336 19.321 33.1932 46.1025 19.2913 34.8661 45.7054 19.9 33.4407 46.4533 19.8679 35.1123 46.0692 20.4761 33.6866 46.7987 20.4407 35.3565 46.4271 21.0484 33.9306 47.1382 21.0088 35.5986 46.7789 21.6162 34.1725 47.4717 21.5715 35.8381 47.1242 22.1785 34.4119 47.7989 22.128 36.0748 47.4629 22.7345 34.6484 48.1198 22.6774 36.3084 47.7947 23.2836 34.8818 48.4339 23.2189 36.5384 48.1193 23.8248 35.1117 48.7413 23.7517 36.7646 48.4366 24.3574 35.3379 49.0416 24.2751 36.9867 48.7464 24.8805 35.5599 49.3347 24.7881 37.2044 49.0482 25.3934 35.7774 49.6203 25.2901 37.4172 49.342 25.8951 35.9902 49.8983 25.7801 37.625 49.6273 26.385 36.1979 50.1684 26.2573 37.8273 49.9041 26.8622 36.4002 50.4303 26.721 38.0238 50.1719 27.3259 36.5967 50.6837 27.1704 38.2142 50.4304 27.7753 36.7872 50.9285 27.6046 38.3983 50.6794 28.2096 36.9712 51.1643 28.0228 38.5756 50.9186 28.6279 37.1486 51.3909 28.4242 38.7459 51.1477 29.0295 37.319 51.6082 28.808 38.9087 51.3665 29.4136 37.482 51.8157 29.1733 39.0639 51.5747 29.7794 37.6373 52.0135 29.5194 39.211 51.772 30.126 37.7846 52.2013 29.8454 39.3497 51.9583 30.4527 37.9236 52.3789 30.1505 39.4797 52.1332 30.7587 38.054 52.5461 30.4339 39.6007 52.2965 31.0431 38.1755 52.7027 30.6951 39.7125 52.4479 31.3049 38.2875 52.848</float_array>
          <technique_common>
            <accessor source="#stream_surface_positions_array" count="710" stride="3">
              <param name="X" type="float"/>
              <param name="Y" type="float"/>
              <param name="Z" type="float"/>
            </accessor>
          </technique_common>
        </source>
        <source id="stream_surface_normals">
          <float_array id="stream_surface_normals_array" count="2130">0 0 1 0 0 1 0 0 1 0 0 1 0 0 1 0 0 1 0 0 1 0 0 1 0 0 1 0 0 1 0 0 1 0 0 1 0 0 1 0 0 1 0 0 1 0 0 1 0 0 1 0 0 1 0 0 1 0 0 1 0 0 1 0 0 1 0 0 1 0 0 1 0 0 1 0 0 1 0 0 1 0 0 1 0 0 1 0 0 1 0 0 1 0 0 1 0 0 1 0 0 1 0 0 1 0 0 1 0 0 1 0 0 1 0 0 1 0 0 1 0 0 1 0 0 1 0 0 1 0 0 1 0 0 1 0 0 1 0 0 1 0 0 1 0 0 1 0 0 1 0 0 1 0 0 1 0 0 1 0 0 1 0 0 1 0 0 1 0 0 1 0 0 1 0 0 1 0 0 1 0 0 1 0 0 1 0 0 1 0 0 1 0 0 1 0 0 1 0 0 1 0 0 1 0 0 1 0 0 1 0 0 1 0 0 1 0 0 1 0 0 1 0 0 1 0 0 1 0 0 1 0 0 1 0 0 1 0 0 1 0 0 1 0 0 1 0 0 1 0 0 1 0 0 1 0 0 1 0 0 1 0 0 1 0 0 1 0 0 1 0 0 1 0 0 1 0 0 1 0 0 1 0 0 1 0 0 1 0 0 1 0 0 1 0 0 1 0 0 1 0 0 1 0 0 1 0 0 1 0 0 1 0 0 1 0 0 1 0 0 1 0 0 1 0 0 1 0 0 1 0 0 1 0 0 1 0 0 1 0 0 1 0 0 1 0 0 1 0 0 1 0 0 1 0 0 1 0 0 1 0 0 1 0 0 1 0 0 1 0 0 1 0 0 1 0 0 1 0 0 1 0 0 1 0 0 1 0 0 1 0 0 1 0 0 1 0 0 1 0 0 1 0 0 1 0 0 1 0 0 1 0 0 1 0 0 1 0 0 1 0 0 1 0 0 1 0 0 1 0 0 1 0 0 1 0 0 1 0 0 1 0 0 1 0 0 1 0 0 1 0 0 1 0 0 1 0 0 1 0 0 1 0 0 1 0 0 1 0 0 1 0 0 1 0 0 1 0 0 1 0 0 1 0 0 1 0 0 1 0 0 1 0 0 1 0 0 1 0 0 1 0 0 1 0 0 1 0 0 1 0 0 1 0 0 1 0 0 1 0 0 1 0 0 1 0 0 1 0 0 1 0 0 1 0 0 1 0 0 1 0 0 1 0 0 1 0 0 1 0 0 1 0 0 1 0 0 1 0 0 1 0 0 1 0 0 1 0 0 1 0 0 1 0 0 1 0 0 1 0 0 1 0 0 1 0 0 1 0 0 1 0 0 1 0 0 1 0 0 1 0 0 1 0 0 1 0 0 1 0 0 1 0 0 1 0 0 1 0 0 1 0 0 1 0 0 1 0 0 1 0 0 1 0 0 1 0 0 1 0 0 1 0 0 1 0 0 1 0 0 1 0 0 1 0 0 1 0 0 1 0 0 1 0 0 1 0 0 1 0 0 1 0 0 1 0 0 1 0 0 1 0 0 1 0 0 1 0 0 1 0 0 1 0 0 1 0 0 1 0 0 1 0 0 1 0 0 1 0 0 1 0 0 1 0 0 1 0 0 1 0 0 1 0 0 1 0 0 1 0 0 1 0 0 1 0 0 1 0 0 1 0 0 1 0 0 1 0 0 1 0 0 1 0 0 1 0 0 1 0 0 1 0 0 1 0 0 1 0 0 1 0 0 1 0 0 1 0 0 1 0 0 1 0 0 1 0 0 1 0 0 1 0 0 1 0 0 1 0 0 1 0 0 1 0 0 1 0 0 1 0 0 1 0 0 1 0 0 1 0 0 1 0 0 1 0 0 1 0 0 1 0 0 1 0 0 1 0 0 1 0 0 1 0 0 1 0 0 1 0 0 1 0 0 1 0 0 1 0 0 1 0 0 1 0 0 1 0 0 1 0 0 1 0 0 1 0 0 1 0 0 1 0 0 1 0 0 1 0 0 1 0 0 1 0 0 1 0 0 1 0 0 1 0 0 1 0 0 1 0 0 1 0 0 1 0 0 1 0 0 1 0 0 1 0 0 1 0 0 1 0 0 1 0 0 1 0 0 1 0 0 1 0 0 1 0 0 1 0 0 1 0 0 1 0 0 1 0 0 1 0 0 1 0 0 1 0 0 1 0 0 1 0 0 1 0 0 1 0 0 1 0 0 1 0 0 1 0 0 1 0 0 1 0 0 1 0 0 1 0 0 1 0 0 1 0 0 1 0 0 1 0 0 1 0 0 1 0 0 1 0 0 1 0 0 1 0 0 1 0 0 1 0 0 1 0 0 1 0 0 1 0 0 1 0 0 1 0 0 1 0 0 1 0 0 1 0 0 1 0 0 1 0 0 1 0 0 1 0 0 1 0 0 1 0 0 1 0 0 1 0 0 1 0 0 1 0 0 1 0 0 1 0 0 1 0 0 1 0 0 1 0 0 1 0 0 1 0 0 1 0 0 1 0 0 1 0 0 1 0 0 1 0 0 1 0 0 1 0 0 1 0 0 1 0 0 1 0 0 1 0 0 1 0 0 1 0 0 1 0 0 1 0 0 1 0 0 1 0 0 1 0 0 1 0 0 1 0 0 1 0 0 1 0 0 1 0 0 1 0 0 1 0 0 1 0 0 1 0 0 1 0 0 1 0 0 1 0 0 1 0 0 1 0 0 1 0 0 1 0 0 1 0 0 1 0 0 1 0 0 1 0 0 1 0 0 1 0 0 1 0 0 1 0 0 1 0 0 1 0 0 1 0 0 1 0 0 1 0 0 1 0 0 1 0 0 1 0 0 1 0 0 1 0 0 1 0 0 1 0 0 1 0 0 1 0 0 1 0 0 1 0 0 1 0 0 1 0 0 1 0 0 1 0 0 1 0 0 1 0 0 1 0 0 1 0 0 1 0 0 1 0 0 1 0 0 1 0 0 1 0 0 1 0 0 1 0 0 1 0 0 1 0 0 1 0 0 1 0 0 1 0 0 1 0 0 1 0 0 1 0 0 1 0 0 1 0 0 1 0 0 1 0 0 1 0 0 1 0 0 1 0 0 1 0 0 1 0 0 1 0 0 1 0 0 1 0 0 1 0 0 1 0 0 1 0 0 1 0 0 1 0 0 1 0 0 1 0 0 1 0 0 1 0 0 1 0 0 1 0 0 1 0 0 1 0 0 1 0 0 1 0 0 1 0 0 1 0 0 1 0 0 1 0 0 1 0 0 1 0 0 1 0 0 1 0 0 1 0 0 1 0 0 1 0 0 1 0 0 1 0 0 1 0 0 1 0 0 1 0 0 1 0 0 1 0 0 1 0 0 1 0 0 1 0 0 1 0 0 1 0 0 1 0 0 1 0 0 1 0 0 1 0 0 1 0 0 1 0 0 1 0 0 1 0 0 1 0 0 1 0 0 1 0 0 1 0 0 1 0 0 1 0 0 1 0 0 1 0 0 1 0 0 1 0 0 1 0 0 1 0 0 1 0 0 1 0 0 1 0 0 1 0 0 1 0 0 1 0 0 1 0 0 1 0 0 1 0 0 1 0 0 1 0 0 1 0 0 1 0 0 1 0 0 1 0 0 1 0 0 1 0 0 1 0 0 1 0 0 1 0 0 1 0 0 1 0 0 1 0 0 1 0 0 1 0 0 1 0 0 1 0 0 1 0 0 1 0 0 1 0 0 1 0 0 1 0 0 1 0 0 1 0 0 1 0 0 1 0 0 1 0 0 1 0 0 1 0 0 1 0 0 1 0 0 1 0 0 1 0 0 1 0 0 1 0 0 1 0 0 1 0 0 1 0 0 1 0 0 1 0 0 1 0 0 1 0 0 1 0 0 1 0 0 1 0 0 1 0 0 1 0 0 1 0 0 1 0 0 1 0 0 1 0 0 1 0 0 1 0 0 1 0 0 1 0 0 1 0 0 1 0 0 1 0 0 1 0 0 1 0 0 1 0 0 1 0 0 1 0 0 1 0 0 1 0 0 1 0 0 1 0 0 1 0 0 1 0 0 1 0 0 1 0 0 1 0 0 1 0 0 1 0 0 1 0 0 1 0 0 1 0 0 1 0 0 1 0 0 1 0 0 1 0 0 1 0 0 1 0 0 1 0 0 1 0 0 1 0 0 1 0 0 1 0 0 1 0 0 1 0 0 1 0 0 1 0 0 1 0 0 1 0 0 1 0 0 1 0 0 1 0 0 1 0 0 1 0 0 1 0 0 1 0 0 1 0 0 1 0 0 1 0 0 1 0 0 1 0 0 1 0 0 1 0 0 1 0 0 1 0 0 1 0 0 1 0 0 1 0 0 1 0 0 1 0 0 1 0 0 1 0 0 1 0 0 1 0 0 1 0 0 1 0 0 1 0 0 1 0 0 1 0 0 1 0 0 1 0 0 1 0 0 1 0 0 1 0 0 1 0 0 1 0 0 1 0 0 1 0 0 1 0 0 1 0 0 1 0 0 1 0 0 1 0 0 1 0 0 1 0 0 1 0 0 1 0 0 1 0 0 1 0 0 1 0 0 1 0 0 1 0 0 1 0 0 1 0 0 1 0 0 1 0 0 1 0 0 1 0 0 1 0 0 1 0 0 1 0 0 1 0 0 1 0 0 1 0 0 1 0 0 1 0 0 1 0 0 1 0 0 1 0 0 1 0 0 1 0 0 1 0 0 1 0 0 1 0 0 1 0 0 1 0 0 1 0 0 1 0 0 1 0 0 1 0 0 1 0 0 1 0 0 1 0 0 1 0 0 1</float_array>
          <technique_common>
            <accessor source="#stream_surface_normals_array" count="710" stride="3">
              <param name="X" type="float"/>
              <param name="Y" type="float"/>
              <param name="Z" type="float"/>
            </accessor>
          </technique_common>
        </source>
        <vertices id="stream_surface_vertices">
          <input semantic="POSITION" source="#stream_surface_positions"/>
        </vertices>
        <triangles count="708">
          <input semantic="VERTEX" source="#stream_surface_vertices" offset="0"/>
          <input semantic="NORMAL" source="#stream_surface_normals" offset="1"/>
          <p>0 0 1 1 2 2 1 1 3 3 2 2 2 2 3 3 4 4 3 3 5 5 4 4 4 4 5 5 6 6 5 5 7 7 6 6 6 6 7 7 8 8 7 7 9 9 8 8 8 8 9 9 10 10 9 9 11 11 10 10 10 10 11 11 12 12 11 11 13 13 12 12 12 12 13 13 14 14 13 13 15 15 14 14 14 14 15 15 16 16 15 15 17 17 16 16 16 16 17 17 18 18 17 17 19 19 18 18 18 18 19 19 20 20 19 19 21 21 20 20 20 20 21 21 22 22 21 21 23 23 22 22 22 22 23 23 24 24 23 23 25 25 24 24 24 24 25 25 26 26 25 25 27 27 26 26 26 26 27 27 28 28 27 27 29 29 28 28 28 28 29 29 30 30 29 29 31 31 30 30 30 30 31 31 32 32 31 31 33 33 32 32 32 32 33 33 34 34 33 33 35 35 34 34 34 34 35 35 36 36 35 35 37 37 36 36 36 36 37 37 38 38 37 37 39 39 38 38 38 38 39 39 40 40 39 39 41 41 40 40 40 40 41 41 42 42 41 41 43 43 42 42 42 42 43 43 44 44 43 43 45 45 44 44 44 44 45 45 46 46 45 45 47 47 46 46 46 46 47 47 48 48 47 47 49 49 48 48 48 48 49 49 50 50 49 49 51 51 50 50 50 50 51 51 52 52 51 51 53 53 52 52 52 52 53 53 54 54 53 53 55 55 54 54 54 54 55 55 56 56 55 55 57 57 56 56 56 56 57 57 58 58 57 57 59 59 58 58 58 58 59 59 60 60 59 59 61 61 60 60 60 60 61 61 62 62 61 61 63 63 62 62 62 62 63 63 64 64 63 63 65 65 64 64 64 64 65 65 66 66 65 65 67 67 66 66 66 66 67 67 68 68 67 67 69 69 68 68 68 68 69 69 70 70 69 69 71 71 70 70 70 70 71 71 72 72 71 71 73 73 72 72 72 72 73 73 74 74 73 73 75 75 74 74 74 74 75 75 76 76 75 75 77 77 76 76 76 76 77 77 78 78 77 77 79 79 78 78 78 78 79 79 80 80 79 79 81 81 80 80 80 80 81 81 82 82 81 81 83 83 82 82 82 82 83 83 84 84 83 83 85 85 84 84 84 84 85 85 86 86 85 85 87 87 86 86 86 86 87 87 88 88 87 87 89 89 88 88 88 88 89 89 90 90 89 89 91 91 90 90 90 90 91 91 92 92 91 91 93 93 92 92 92 92 93 93 94 94 93 93 95 95 94 94 94 94 95 95 96 96 95 95 97 97 96 96 96 96 97 97 98 98 97 97 99 99 98 98 98 98 99 99 100 100 99 99 101 101 100 100 100 100 101 101 102 102 101 101 103 103 102 102 102 102 103 103 104 104 103 103 105 105 104 104 104 104 105 105 106 106 105 105 107 107 106 106 106 106 107 107 108 108 107 107 109 109 108 108 108 108 109 109 110 110 109 109 111 111 110 110 110 110 111 111 112 112 111 111 113 113 112 112 112 112 113 113 114 114 113 113 115 115 114 114 114 114 115 115 116 116 115 115 117 117 116 116 116 116 117 117 118 118 117 117 119 119 118 118 118 118 119 119 120 120 119 119 121 121 120 120 120 120 121 121 122 122 121 121 123 123 122 122 122 122 123 123 124 124 123 123 125 125 124 124 124 124 125 125 126 126 125 125 127 127 126 126 126 126 127 127 128 128 127 127 129 129 128 128 128 128 129 129 130 130 129 129 131 131 130 130 130 130 131 131 132 132 131 131 133 133 132 132 132 132 133 133 134 134 133 133 135 135 134 134 134 134 135 135 136 136 135 135 137 137 136 136 136 136 137 137 138 138 137 137 139 139 138 138 138 138 139 139 140 140 139 139 141 141 140 140 140 140 141 141 142 142 141 141 143 143 142 142 142 142 143 143 144 144 143 143 145 145 144 144 144 144 145 145 146 146 145 145 147 147 146 146 146 146 147 147 148 148 147 147 149 149 148 148 148 148 149 149 150 150 149 149 151 151 150 150 150 150 151 151 152 152 151 151 153 153 152 152 152 152 153 153 154 154 153 153 155 155 154 154 154 154 155 155 156 156 155 155 157 157 156 156 156 156 157 157 158 158 157 157 159 159 158 158 158 158 159 159 160 160 159 159 161 161 160 160 160 160 161 161 162 162 161 161 163 163 162 162 162 162 163 163 164 164 163 163 165 165 164 164 164 164 165 165 166 166 165 165 167 167 166 166 166 166 167 167 168 168 167 167 169 169 168 168 168 168 169 169 170 170 169 169 171 171 170 170 170 170 171 171 172 172 171 171 173 173 172 172 172 172 173 173 174 174 173 173 175 175 174 174 174 174 175 175 176 176 175 175 177 177 176 176 176 176 177 177 178 178 177 177 179 179 178 178 178 178 179 179 180 180 179 179 181 181 180 180 180 180 181 181 182 182 181 181 183 183 182 182 182 182 183 183 184 184 183 183 185 185 184 184 184 184 185 185 186 186 185 185 187 187 186 186 186 186 187 187 188 188 187 187 189 189 188 188 188 188 189 189 190 190 189 189 191 191 190 190 190 190 191 191 192 192 191 191 193 193 192 192 192 192 193 193 194 194 193 193 195 195 194 194 194 194 195 195 196 196 195 195 197 197 196 196 196 196 197 197 198 198 197 197 199 199 198 198 198 198 199 199 200 200 199 199 201 201 200 200 200 200 201 201 202 202 201 201 203 203 202 202 202 202 203 203 204 204 203 203 205 205 204 204 204 204 205 205 206 206 205 205 207 207 206 206 206 206 207 207 208 208 207 207 209 209 208 208 208 208 209 209 210 210 209 209 211 211 210 210 210 210 211 211 212 212 211 211 213 213 212 212 212 212 213 213 214 214 213 213 215 215 214 214 214 214 215 215 216 216 215 215 217 217 216 216 216 216 217 217 218 218 217 217 219 219 218 218 218 218 219 219 220 220 219 219 221 221 220 220 220 220 221 221 222 222 221 221 223 223 222 222 222 222 223 223 224 224 223 223 225 225 224 224 224 224 225 225 226 226 225 225 227 227 226 226 226 226 227 227 228 228 227 227 229 229 228 228 228 228 229 229 230 230 229 229 231 231 230 230 230 230 231 231 232 232 231 231 233 233 232 232 232 232 233 233 234 234 233 233 235 235 234 234 234 234 235 235 236 236 235 235 237 237 236 236 236 236 237 237 238 238 237 237 239 239 238 238 238 238 239 239 240 240 239 239 241 241 240 240 240 240 241 241 242 242 241 241 243 243 242 242 242 242 243 243 244 244 243 243 245 245 244 244 244 244 245 245 246 246 245 245 247 247 246 246 246 246 247 247 248 248 247 247 249 249 248 248 248 248 249 249 250 250 249 249 251 251 250 250 250 250 251 251 252 252 251 251 253 253 252 252 252 252 253 253 254 254 253 253 255 255 254 254 254 254 255 255 256 256 255 255 257 257 256 256 256 256 257 257 258 258 257 257 259 259 258 258 258 258 259 259 260 260 259 259 261 261 260 260 260 260 261 261 262 262 261 261 263 263 262 262 262 262 263 263 264 264 263 263 265 265 264 264 264 264 265 265 266 266 265 265 267 267 266 266 266 266 267 267 268 268 267 267 269 269 268 268 268 268 269 269 270 270 269 269 271 271 270 270 270 270 271 271 272 272 271 271 273 273 272 272 272 272 273 273 274 274 273 273 275 275 274 274 274 274 275 275 276 276 275 275 277 277 276 276 276 276 277 277 278 278 277 277 279 279 278 278 278 278 279 279 280 280 279 279 281 281 280 280 280 280 281 281 282 282 281 281 283 283 282 282 282 282 283 283 284 284 283 283 285 285 284 284 284 284 285 285 286 286 285 285 287 287 286 286 286 286 287 287 288 288 287 287 289 289 288 288 288 288 289 289 290 290 289 289 291 291 290 290 290 290 291 291 292 292 291 291 293 293 292 292 292 292 293 293 294 294 293 293 295 295 294 294 294 294 295 295 296 296 295 295 297 297 296 296 296 296 297 297 298 298 297 297 299 299 298 298 298 298 299 299 300 300 299 299 301 301 300 300 300 300 301 301 302 302 301 301 303 303 302 302 302 302 303 303 304 304 303 303 305 305 304 304 304 304 305 305 306 306 305 305 307 307 306 306 306 306 307 307 308 308 307 307 309 309 308 308 308 308 309 309 310 310 309 309 311 311 310 310 310 310 311 311 312 312 311 311 313 313 312 312 312 312 313 313 314 314 313 313 315 315 314 314 314 314 315 315 316 316 315 315 317 317 316 316 316 316 317 317 318 318 317 317 319 319 318 318 318 318 319 319 320 320 319 319 321 321 320 320 320 320 321 321 322 322 321 321 323 323 322 322 322 322 323 323 324 324 323 323 325 325 324 324 324 324 325 325 326 326 325 325 327 327 326 326 326 326 327 327 328 328 327 327 329 329 328 328 328 328 329 329 330 330 329 329 331 331 330 330 330 330 331 331 332 332 331 331 333 333 332 332 332 332 333 333 334 334 333 333 335 335 334 334 334 334 335 335 336 336 335 335 337 337 336 336 336 336 337 337 338 338 337 337 339 339 338 338 338 338 339 339 340 340 339 339 341 341 340 340 340 340 341 341 342 342 341 341 343 343 342 342 342 342 343 343 344 344 343 343 345 345 344 344 344 344 345 345 346 346 345 345 347 347 346 346 346 346 347 347 348 348 347 347 349 349 348 348 348 348 349 349 350 350 349 349 351 351 350 350 350 350 351 351 352 352 351 351 353 353 352 352 352 352 353 353 354 354 353 353 355 355 354 354 354 354 355 355 356 356 355 355 357 357 356 356 356 356 357 357 358 358 357 357 359 359 358 358 358 358 359 359 360 360 359 359 361 361 360 360 360 360 361 361 362 362 361 361 363 363 362 362 362 362 363 363 364 364 363 363 365 365 364 364 364 364 365 365 366 366 365 365 367 367 366 366 366 366 367 367 368 368 367 367 369 369 368 368 368 368 369 369 370 370 369 369 371 371 370 370 370 370 371 371 372 372 371 371 373 373 372 372 372 372 373 373 374 374 373 373 375 375 374 374 374 374 375 375 376 376 375 375 377 377 376 376 376 376 377 377 378 378 377 377 379 379 378 378 378 378 379 379 380 380 379 379 381 381 380 380 380 380 381 381 382 382 381 381 383 383 382 382 382 382 383 383 384 384 383 383 385 385 384 384 384 384 385 385 386 386 385 385 387 387 386 386 386 386 387 387 388 388 387 387 389 389 388 388 388 388 389 389 390 390 389 389 391 391 390 390 390 390 391 391 392 392 391 391 393 393 392 392 392 392 393 393 394 394 393 393 395 395 394 394 394 394 395 395 396 396 395 395 397 397 396 396 396 396 397 397 398 398 397 397 399 399 398 398 398 398 399 399 400 400 399 399 401 401 400 400 400 400 401 401 402 402 401 401 403 403 402 402 402 402 403 403 404 404 403 403 405 405 404 404 404 404 405 405 406 406 405 405 407 407 406 406 406 406 407 407 408 408 407 407 409 409 408 408 408 408 409 409 410 410 409 409 411 411 410 410 410 410 411 411 412 412 411 411 413 413 412 412 412 412 413 413 414 414 413 413 415 415 414 414 414 414 415 415 416 416 415 415 417 417 416 416 416 416 417 417 418 418 417 417 419 419 418 418 418 418 419 419 420 420 419 419 421 421 420 420 420 420 421 421 422 422 421 421 423 423 422 422 422 422 423 423 424 424 423 423 425 425 424 424 424 424 425 425 426 426 425 425 427 427 426 426 426 426 427 427 428 428 427 427 429 429 428 428 428 428 429 429 430 430 429 429 431 431 430 430 430 430 431 431 432 432 431 431 433 433 432 432 432 432 433 433 434 434 433 433 435 435 434 434 434 434 435 435 436 436 435 435 437 437 436 436 436 436 437 437 438 438 437 437 439 439 438 438 438 438 439 439 440 440 439 439 441 441 440 440 440 440 441 441 442 442 441 441 443 443 442 442 442 442 443 443 444 444 443 443 445 445 444 444 444 444 445 445 446 446 445 445 447 447 446 446 446 446 447 447 448 448 447 447 449 449 448 448 448 448 449 449 450 450 449 449 451 451 450 450 450 450 451 451 452 452 451 451 453 453 452 452 452 452 453 453 454 454 453 453 455 455 454 454 454 454 455 455 456 456 455 455 457 457 456 456 456 456 457 457 458 458 457 457 459 459 458 458 458 458 459 459 460 460 459 459 461 461 460 460 460 460 461 461 462 462 461 461 463 463 462 462 462 462 463 463 464 464 463 463 465 465 464 464 464 464 465 465 466 466 465 465 467 467 466 466 466 466 467 467 468 468 467 467 469 469 468 468 468 468 469 469 470 470 469 469 471 471 470 470 470 470 471 471 472 472 471 471 473 473 472 472 472 472 473 473 474 474 473 473 475 475 474 474 474 474 475 475 476 476 475 475 477 477 476 476 476 476 477 477 478 478 477 477 479 479 478 478 478 478 479 479 480 480 479 479 481 481 480 480 480 480 481 481 482 482 481 481 483 483 482 482 482 482 483 483 484 484 483 483 485 485 484 484 484 484 485 485 486 486 485 485 487 487 486 486 486 486 487 487 488 488 487 487 489 489 488 488 488 488 489 489 490 490 489 489 491 491 490 490 490 490 491 491 492 492 491 491 493 493 492 492 492 492 493 493 494 494 493 493 495 495 494 494 494 494 495 495 496 496 495 495 497 497 496 496 496 496 497 497 498 498 497 497 499 499 498 498 498 498 499 499 500 500 499 499 501 501 500 500 500 500 501 501 502 502 501 501 503 503 502 502 502 502 503 503 504 504 503 503 505 505 504 504 504 504 505 505 506 506 505 505 507 507 506 506 506 506 507 507 508 508 507 507 509 509 508 508 508 508 509 509 510 510 509 509 511 511 510 510 510 510 511 511 512 512 511 511 513 513 512 512 512 512 513 513 514 514 513 513 515 515 514 514 514 514 515 515 516 516 515 515 517 517 516 516 516 516 517 517 518 518 517 517 519 519 518 518 518 518 519 519 520 520 519 519 521 521 520 520 520 520 521 521 522 522 521 521 523 523 522 522 522 522 523 523 524 524 523 523 525 525 524 524 524 524 525 525 526 526 525 525 527 527 526 526 526 526 527 527 528 528 527 527 529 529 528 528 528 528 529 529 530 530 529 529 531 531 530 530 530 530 531 531 532 532 531 531 533 533 532 532 532 532 533 533 534 534 533 533 535 535 534 534 534 534 535 535 536 536 535 535 537 537 536 536 536 536 537 537 538 538 537 537 539 539 538 538 538 538 539 539 540 540 539 539 541 541 540 540 540 540 541 541 542 542 541 541 543 543 542 542 542 542 543 543 544 544 543 543 545 545 544 544 544 544 545 545 546 546 545 545 547 547 546 546 546 546 547 547 548 548 547 547 549 549 548 548 548 548 549 549 550 550 549 549 551 551 550 550 550 550 551 551 552 552 551 551 553 553 552 552 552 552 553 553 554 554 553 553 555 555 554 554 554 554 555 555 556 556 555 555 557 557 556 556 556 556 557 557 558 558 557 557 559 559 558 558 558 558 559 559 560 560 559 559 561 561 560 560 560 560 561 561 562 562 561 561 563 563 562 562 562 562 563 563 564 564 563 563 565 565 564 564 564 564 565 565 566 566 565 565 567 567 566 566 566 566 567 567 568 568 567 567 569 569 568 568 568 568 569 569 570 570 569 569 571 571 570 570 570 570 571 571 572 572 571 571 573 573 572 572 572 572 573 573 574 574 573 573 575 575 574 574 574 574 575 575 576 576 575 575 577 577 576 576 576 576 577 577 578 578 577 577 579 579 578 578 578 578 579 579 580 580 579 579 581 581 580 580 580 580 581 581 582 582 581 581 583 583 582 582 582 582 583 583 584 584 583 583 585 585 584 584 584 584 585 585 586 586 585 585 587 587 586 586 586 586 587 587 588 588 587 587 589 589 588 588 588 588 589 589 590 590 589 589 591 591 590 590 590 590 591 591 592 592 591 591 593 593 592 592 592 592 593 593 594 594 593 593 595 595 594 594 594 594 595 595 596 596 595 595 597 597 596 596 596 596 597 597 598 598 597 597 599 599 598 598 598 598 599 599 600 600 599 599 601 601 600 600 600 600 601 601 602 602 601 601 603 603 602 602 602 602 603 603 604 604 603 603 605 605 604 604 604 604 605 605 606 606 605 605 607 607 606 606 606 606 607 607 608 608 607 607 609 609 608 608 608 608 609 609 610 610 609 609 611 611 610 610 610 610 611 611 612 612 611 611 613 613 612 612 612 612 613 613 614 614 613 613 615 615 614 614 614 614 615 615 616 616 615 615 617 617 616 616 616 616 617 617 618 618 617 617 619 619 618 618 618 618 619 619 620 620 619 619 621 621 620 620 620 620 621 621 622 622 621 621 623 623 622 622 622 622 623 623 624 624 623 623 625 625 624 624 624 624 625 625 626 626 625 625 627 627 626 626 626 626 627 627 628 628 627 627 629 629 628 628 628 628 629 629 630 630 629 629 631 631 630 630 630 630 631 631 632 632 631 631 633 633 632 632 632 632 633 633 634 634 633 633 635 635 634 634 634 634 635 635 636 636 635 635 637 637 636 636 636 636 637 637 638 638 637 637 639 639 638 638 638 638 639 639 640 640 639 639 641 641 640 640 640 640 641 641 642 642 641 641 643 643 642 642 642 642 643 643 644 644 643 643 645 645 644 644 644 644 645 645 646 646 645 645 647 647 646 646 646 646 647 647 648 648 647 647 649 649 648 648 648 648 649 649 650 650 649 649 651 651 650 650 650 650 651 651 652 652 651 651 653 653 652 652 652 652 653 653 654 654 653 653 655 655 654 654 654 654 655 655 656 656 655 655 657 657 656 656 656 656 657 657 658 658 657 657 659 659 658 658 658 658 659 659 660 660 659 659 661 661 660 660 660 660 661 661 662 662 661 661 663 663 662 662 662 662 663 663 664 664 663 663 665 665 664 664 664 664 665 665 666 666 665 665 667 667 666 666 666 666 667 667 668 668 667 667 669 669 668 668 668 668 669 669 670 670 669 669 671 671 670 670 670 670 671 671 672 672 671 671 673 673 672 672 672 672 673 673 674 674 673 673 675 675 674 674 674 674 675 675 676 676 675 675 677 677 676 676 676 676 677 677 678 678 677 677 679 679 678 678 678 678 679 679 680 680 679 679 681 681 680 680 680 680 681 681 682 682 681 681 683 683 682 682 682 682 683 683 684 684 683 683 685 685 684 684 684 684 685 685 686 686 685 685 687 687 686 686 686 686 687 687 688 688 687 687 689 689 688 688 688 688 689 689 690 690 689 689 691 691 690 690 690 690 691 691 692 692 691 691 693 693 692 692 692 692 693 693 694 694 693 693 695 695 694 694 694 694 695 695 696 696 695 695 697 697 696 696 696 696 697 697 698 698 697 697 699 699 698 698 698 698 699 699 700 700 699 699 701 701 700 700 700 700 701 701 702 702 701 701 703 703 702 702 702 702 703 703 704 704 703 703 705 705 704 704 704 704 705 705 706 706 705 705 707 707 706 706 706 706 707 707 708 708 707 707 709 709 708 708</p>
        </triangles>
      </mesh>
    </geometry>
  </library_geometries>
  <library_visual_scenes>
    <visual_scene id="Scene" name="Scene">
      <node id="stream_surface_node" name="stream_surface">
        <instance_geometry url="#stream_surface"/>
      </node>
    </visual_scene>
  </library_visual_scenes>
  <scene>
    <instance_visual_scene url="#Scene"/>
  </scene>
</COLLADA>
